<svg xmlns="http://www.w3.org/2000/svg" width="120" height="100" viewBox="0 0 31.75 26.458"><path d="M11.1 6.853l-2.892 3.72 5.376 2.628 2.75-4.763zm-3.412 4.405L6.693 12.55l7.616 10.4 3.814-6.606zm4.868-6.252l-.878 1.13 2.447.74z" fill="#999"/><path d="M14.35 13.575l2.192-3.797 6.926 8.254z" fill="#318be7"/><path d="M20.15 12.778l4.24-7.344h-5.358l-2.056 3.56zm-4.9 10.34l3.7-6.4 5.945 2.906 5.103 6.08zm.808-22.61L13.095 4.32l2.517 3 1.186.36 1.786-3.093h6.338l1.318-2.283zM31.25 25.945v-13l-5.035-1.525-.834 7.53zm-5.1-21.8l-5.383 9.324 3.844 4.58zm1.1-1.676l-.896 8.1 4.94 1.496V2.18zM6.137 13.248L.48 20.525l12.608 2.223z" fill="#999"/></svg>